<svg width="117" height="46" viewBox="0 0 117 46" fill="none" xmlns="http://www.w3.org/2000/svg">
<path d="M1.886 6.48269H6.946V20.0527L13.386 6.48269H18.446L12.42 18.3047L18.538 38.6827H13.248L8.97 24.3307L6.946 28.4247V38.6827H1.886V6.48269ZM49.4744 6.48269H62.8604V11.0827H54.5344V20.0527H61.0664V24.6527H54.5344V38.6827H49.4744V6.48269ZM66.8969 6.48269H80.2829V11.0827H71.9569V20.0527H78.4889V24.6527H71.9569V38.6827H66.8969V6.48269ZM84.3194 6.48269H98.1194V11.0827H89.3794V19.5927H96.3254V24.1927H89.3794V34.0827H98.1194V38.6827H84.3194V6.48269ZM102.64 6.48269H116.44V11.0827H107.7V19.5927H114.646V24.1927H107.7V34.0827H116.44V38.6827H102.64V6.48269Z" fill="#393330"/>
<g clip-path="url(#clip0_7_1462)">
<path d="M27.6998 37.4565C34.9989 40.0633 40.5246 33.8069 43.1315 26.5078C45.7387 19.2103 45.4251 10.869 38.1276 8.26175C30.8285 5.65491 25.3023 11.9099 22.6955 19.2089C20.0886 26.508 20.4007 34.8497 27.6998 37.4565Z" stroke="#EE8542" stroke-width="3"/>
<path d="M37.0862 11.1815C35.1049 12.1207 30.0993 16.9164 31.4555 22.3387C32.8098 27.7599 29.9944 33.3385 28.7433 34.5369C31.4556 33.8601 35.7302 28.8021 34.374 23.3798C33.0197 17.9586 35.8336 12.3804 37.0862 11.1815Z" fill="#EE8542"/>
</g>
<defs>
<clipPath id="clip0_7_1462">
<rect width="37.2009" height="37.2009" fill="white" transform="translate(10.0547 9.8448) rotate(-15.3455)"/>
</clipPath>
</defs>
</svg>
